<svg height="512pt" viewBox="0 -22 512 512" width="512pt" xmlns="http://www.w3.org/2000/svg"><path d="m156.257812 337.101562s-26.785156 33.378907-26.785156 78.917969c0 45.539063 53.574219 44.871094 53.574219 44.871094h145.902344s53.578125.667969 53.578125-44.871094c0-45.539062-26.789063-78.917969-26.789063-78.917969l-96.390625-24.214843zm0 0" fill="#e8e8e8"/><path d="m159.472656 416.019531c0-45.539062 26.785156-78.917969 26.785156-78.917969l87.585938-20.574218-14.496094-3.640625-103.089844 24.214843s-26.785156 33.378907-26.785156 78.917969c0 45.539063 53.574219 44.871094 53.574219 44.871094h29.738281c-3.949218-.023437-53.3125-1.15625-53.3125-44.871094zm0 0" fill="#d2d1d7"/><path d="m427.28125 337.003906c-1.292969.070313-2.582031.101563-3.890625.101563h-334.78125c-1.308594 0-2.597656-.03125-3.890625-.101563l-76.96875-92.238281c1.460938-32.800781 9.28125-63.949219 22.261719-92.242187l79.539062-97.296876c20.257813-14.820312 42.847657-26.632812 67.121094-34.792968h158.65625c24.273437 8.160156 46.863281 19.972656 67.121094 34.792968l79.539062 97.296876c12.980469 28.292968 20.800781 59.441406 22.261719 92.242187zm0 0" fill="#f75747"/><path d="m44.355469 288.632812c-4.398438-9.988281-6.855469-21.019531-6.855469-32.628906 0-3.769531.078125-7.507812.25-11.238281 1.460938-32.800781 9.277344-63.949219 22.257812-92.242187 17.820313-38.867188 45.371094-72.339844 79.542969-97.300782 20.257813-14.820312 42.847657-26.628906 67.121094-34.789062 0 0-29.996094 0-30 0-3.957031 1.332031-7.867187 2.769531-11.730469 4.289062-19.65625 7.742188-38.34375 18.027344-55.390625 30.5l-79.542969 97.300782c-8.109374 17.679687-14.207031 36.480468-17.996093 56.101562-2.300781 11.917969-3.722657 24.011719-4.261719 36.140625zm0 0" fill="#e73826"/><g fill="#e8e8e8"><path d="m335.324219 20.433594c-6.179688 38.230468-39.34375 67.429687-79.324219 67.429687s-73.144531-29.199219-79.324219-67.429687c24.910157-8.386719 51.585938-12.933594 79.324219-12.933594s54.414062 4.546875 79.324219 12.933594zm0 0"/><path d="m481.992188 152.523438c-7.730469 3.203124-16.203126 4.96875-25.082032 4.96875-36.242187 0-65.628906-29.386719-65.628906-65.628907 0-13.570312 4.117188-26.179687 11.167969-36.640625 10.402343 7.59375 20.1875 15.980469 29.269531 25.058594 20.765625 20.769531 37.875 45.199219 50.273438 72.242188zm0 0"/><path d="m120.71875 91.863281c0 36.242188-29.386719 65.628907-65.628906 65.628907-8.878906 0-17.351563-1.765626-25.082032-4.96875 17.820313-38.867188 45.375-72.339844 79.542969-97.300782 7.050781 10.460938 11.167969 23.074219 11.167969 36.640625zm0 0"/><path d="m324.667969 202.195312c0 37.921876-30.746094 68.667969-68.667969 68.667969s-68.667969-30.746093-68.667969-68.667969c0-37.925781 30.746094-68.667968 68.667969-68.667968s68.667969 30.742187 68.667969 68.667968zm0 0"/><path d="m88.011719 315.554688c0 7.480468-1.152344 14.679687-3.292969 21.449218-20.859375-.980468-39.648438-9.839844-53.457031-23.660156-14.683594-14.667969-23.761719-34.949219-23.761719-57.339844 0-3.769531.078125-7.507812.25-11.238281 2.921875-.359375 5.898438-.550781 8.921875-.550781 39.398437 0 71.339844 31.941406 71.339844 71.339844zm0 0"/></g><path d="m86.4375 330.449219c-9.464844-4.089844-18-9.917969-25.179688-17.105469-14.679687-14.667969-23.757812-34.949219-23.757812-57.339844 0-2.898437.0625-5.773437.164062-8.644531-6.640624-2.042969-13.6875-3.144531-20.992187-3.144531-3.023437 0-6 .191406-8.921875.550781-.171875 3.730469-.25 7.46875-.25 11.238281 0 14.449219 4.085938 29.449219 11.742188 42.050782 13.824218 22.742187 38.890624 37.699218 65.476562 38.949218.679688-2.140625 1.242188-4.328125 1.71875-6.554687zm0 0" fill="#d2d1d7"/><path d="m30.011719 152.523438c7.726562 3.203124 16.199219 4.96875 25.078125 4.96875.917968 0 1.832031-.03125 2.742187-.066407.710938-1.644531 1.433594-3.277343 2.175781-4.902343 13.890626-30.296876 33.695313-57.3125 57.9375-79.578126-1.914062-6.367187-4.761718-12.332031-8.394531-17.722656-28.824219 21.058594-53.042969 48.34375-70.488281 79.488282-3.246094 5.796874-6.269531 11.738281-9.050781 17.8125zm0 0" fill="#d2d1d7"/><path d="m179.296875 31.511719c8.851563-4.210938 17.984375-7.917969 27.375-11.078125 20.390625-6.863282 41.960937-11.152344 64.324219-12.484375-1.335938-.078125-11.335938-.449219-14.996094-.449219-16.980469 0-33.964844 1.714844-50.59375 5.15625-9.800781 2.027344-19.390625 4.632812-28.734375 7.777344.613281 3.789062 1.503906 7.488281 2.625 11.078125zm0 0" fill="#d2d1d7"/><path d="m504.5 256.003906c0 43.472656-34.230469 78.980469-77.21875 81-2.140625-6.769531-3.292969-13.96875-3.292969-21.449218 0-39.398438 31.941407-71.339844 71.339844-71.339844 3.023437 0 6 .191406 8.921875.550781.171875 3.730469.25 7.46875.25 11.238281zm0 0" fill="#e8e8e8"/><path d="m193.757812 378.832031c-4.140624 0-7.5 3.355469-7.5 7.5v11.265625c0 4.140625 3.359376 7.5 7.5 7.5 4.140626 0 7.5-3.359375 7.5-7.5v-11.265625c0-4.144531-3.359374-7.5-7.5-7.5zm0 0"/><path d="m318.242188 405.097656c4.140624 0 7.5-3.359375 7.5-7.5v-11.265625c0-4.140625-3.359376-7.5-7.5-7.5-4.140626 0-7.5 3.359375-7.5 7.5v11.265625c0 4.140625 3.359374 7.5 7.5 7.5zm0 0"/><path d="m276.296875 391.164062c-3.117187-2.726562-7.855469-2.40625-10.582031.710938-2.351563 2.691406-5.894532 4.234375-9.714844 4.234375s-7.363281-1.542969-9.714844-4.234375c-2.726562-3.117188-7.464844-3.4375-10.582031-.710938-3.121094 2.726563-3.4375 7.464844-.710937 10.582032 5.199218 5.949218 12.855468 9.363281 21.007812 9.363281s15.808594-3.414063 21.007812-9.363281c2.726563-3.117188 2.410157-7.855469-.710937-10.582032zm0 0"/><path d="m256 126.027344c-18.089844 0-35.636719 6.46875-49.402344 18.21875-3.152344 2.6875-3.527344 7.421875-.839844 10.574218 2.691407 3.148438 7.425782 3.523438 10.574219.835938 11.058594-9.433594 25.144531-14.628906 39.667969-14.628906 33.726562 0 61.167969 27.441406 61.167969 61.167968 0 33.726563-27.441407 61.164063-61.167969 61.164063s-61.167969-27.4375-61.167969-61.164063c0-8.808593 1.851563-17.332031 5.496094-25.332031 1.71875-3.769531.054687-8.21875-3.714844-9.933593-3.765625-1.71875-8.214843-.058594-9.933593 3.710937-4.542969 9.96875-6.847657 20.582031-6.847657 31.554687 0 41.996094 34.167969 76.164063 76.167969 76.164063s76.167969-34.167969 76.167969-76.164063c0-42-34.167969-76.167968-76.167969-76.167968zm0 0"/><path d="m511.742188 244.429688c-1.472657-33.089844-9.183594-65.054688-22.933594-95.03125-12.707032-27.722657-30.132813-52.761719-51.789063-74.417969-47.695312-47.695313-113.582031-74.980469-181.019531-74.980469-53.972656 0-107.246094 17.273438-150.824219 49.132812-.015625.011719-.035156.019532-.050781.03125-35.390625 25.855469-63.722656 60.515626-81.933594 100.234376-.007812.011718-.011718.027343-.015625.039062-13.734375 29.949219-21.445312 61.90625-22.917969 95-.1718745 3.75-.257812 7.640625-.257812 11.566406 0 48.203125 40.367188 88.601563 88.609375 88.601563h53.617187c-8.414062 14.261719-20.253906 39.925781-20.253906 71.410156 0 33.421875 29.929688 52.375 60.839844 52.375.113281 0 .195312-.003906.234375-.003906h145.8125c31.195313 0 61.167969-18.703125 61.167969-52.367188 0-31.488281-11.84375-57.152343-20.253906-71.414062h53.617187c48.363281-.003907 88.609375-40.242188 88.609375-88.601563 0-3.925781-.085938-7.816406-.257812-11.574218zm-40.179688-96.308594c-.113281.027344-.222656.0625-.335938.09375-4.671874 1.183594-9.492187 1.777344-14.316406 1.777344-32.050781 0-58.128906-26.074219-58.128906-58.128907 0-8.800781 2.019531-17.640625 5.902344-25.542969 7.613281 5.976563 14.894531 12.433594 21.730468 19.265626 18.410157 18.414062 33.574219 39.417968 45.148438 62.535156zm-144.945312-122.609375c-7.460938 29.28125-34.023438 51.867187-64.121094 54.5625-4.792969.429687-9.601563.363281-14.386719-.15625-29.445313-3.207031-55.40625-25.679688-62.726563-54.40625 22.800782-6.976563 46.523438-10.511719 70.617188-10.511719s47.816406 3.535156 70.617188 10.511719zm-219.300782 40.808593c.035156.070313.074219.144532.105469.214844 5.535156 11.40625 7.160156 24.613282 4.613281 37.027344-5.429687 26.464844-28.898437 46.429688-56.945312 46.429688-4.941406 0-9.871094-.632813-14.652344-1.871094 15.929688-31.765625 38.847656-59.792969 66.878906-81.800782zm-92.316406 189.683594c0-1.429687.011719-2.851562.035156-4.265625 14.828125-.382812 29.6875 4.621094 41.304688 13.835938 18.644531 14.785156 27.6875 39.65625 22.835937 62.96875-.03125.148437-.0625.296875-.09375.441406-16.050781-2.074219-30.96875-9.382813-42.519531-20.945313-13.90625-13.894531-21.5625-32.375-21.5625-52.035156zm293.425781 73.601563c-4.140625 0-7.5 3.355469-7.5 7.5 0 4.140625 3.359375 7.5 7.5 7.5h43.503907c5.996093 8.65625 23.097656 36.429687 23.097656 71.410156 0 25.140625-23.414063 37.445313-46.074219 37.375 0 0-145.9375 0-146 0-22.84375 0-45.980469-12.148437-45.980469-37.371094 0-35 17.117188-62.78125 23.09375-71.414062h119.160156c4.140626 0 7.5-3.359375 7.5-7.5 0-4.144531-3.359374-7.5-7.5-7.5h-184.96875c2.449219-13.589844 1.359376-28.136719-3.523437-41.085938-.007813-.015625-.011719-.03125-.015625-.046875-11.148438-30.910156-41.902344-52.011718-74.683594-51.75-.089844.003906-.183594-.003906-.277344-.003906 2.042969-25.894531 8.183594-50.988281 18.300782-74.796875 6.804687 2.046875 13.925781 3.070313 21.03125 3.070313 34.023437 0 62.695312-23.355469 70.824218-54.875 4.539063-17.605469 2.261719-36.785157-6.351562-52.804688 16.074219-11.070312 33.367188-20.109375 51.585938-26.953125.144531.542969.3125 1.078125.46875 1.617187 9.121093 31.460938 36.027343 55.90625 68.359374 61.90625 10.398438 1.925782 21.203126 1.964844 31.613282.085938 29.902344-5.394531 56.003906-27.246094 66.707031-55.671875.976563-2.597656 1.835937-5.257813 2.558594-7.9375 18.214843 6.84375 35.511719 15.882813 51.582031 26.953125-5.664062 10.558594-8.65625 22.574219-8.65625 34.550781 0 40.324219 32.804688 73.128907 73.128906 73.128907 7.105469 0 14.230469-1.027344 21.035156-3.070313 10.117188 23.808594 16.253907 48.902344 18.296876 74.796875-.09375 0-.183594.007812-.273438.003906-20.132812-.136718-40.125 7.660156-54.730469 21.542969-19.109375 18.167969-28.191406 45.335937-23.496093 71.339844zm124.492188-.617188c-1.203125-.152343-1.429688-12.335937-1.429688-13.433593 0-35.199219 28.640625-63.839844 63.839844-63.839844.542969 0 1.089844.011718 1.636719.023437.023437 1.414063.035156 2.835938.035156 4.265625 0 37.347656-27.695312 68.320313-64.082031 72.984375zm0 0"/></svg>